####
#
# OBJ File Generated by Meshlab
#
####
# Object link_4_decimated.obj
#
# Vertices: 102
# Faces: 200
#
####
vn -0.649080 2.171110 -2.793339
v 0.005659 0.174500 0.025294
vn -0.430650 2.137178 2.775250
v 0.003336 0.174500 -0.025704
vn -2.305840 0.963800 -1.735271
v -0.024619 0.010429 -0.010500
vn -1.771028 -2.069961 -2.206438
v -0.017548 -0.019076 -0.010500
vn 0.714944 -2.580751 -2.012706
v 0.007747 -0.024735 -0.010500
vn 2.528373 -0.199157 -1.859410
v 0.026701 -0.001380 -0.010500
vn 0.699892 2.368133 -1.775296
v 0.005995 0.026056 -0.010500
vn -6.039273 -0.297887 0.800972
v -0.059147 0.122094 0.036089
vn 2.180026 5.107144 -0.728077
v -0.023837 0.184466 0.011376
vn 2.361681 1.892970 1.239912
v -0.020593 0.174500 -0.015741
vn 1.604681 4.490774 2.091606
v -0.016107 0.184500 -0.021341
vn -0.688679 3.624736 2.901342
v 0.004341 0.184500 -0.024620
vn -2.637128 2.337795 0.991840
v 0.023928 0.174500 -0.009964
vn -2.657494 2.158473 -1.079532
v 0.022328 0.174500 0.011956
vn -2.128341 4.155277 -1.844310
v 0.019076 0.184500 0.017548
vn 1.767885 2.031469 -2.128134
v -0.015650 0.174500 0.019914
vn -0.491845 -1.565272 -5.286902
v -0.005217 0.158355 -0.067633
vn 2.966404 0.628563 -2.590870
v 0.066072 0.018483 -0.000500
vn 6.143286 0.667110 0.672235
v 0.061919 0.025534 0.042217
vn 6.051018 -0.350098 -1.081331
v 0.054590 0.084270 0.037410
vn 5.664893 -1.038141 -1.497701
v 0.063943 0.162098 -0.013378
vn 2.357691 1.885857 -1.518398
v 0.058148 0.184487 -0.038604
vn 1.293972 2.234778 -2.660283
v 0.028722 0.184500 -0.062570
vn 5.704323 -1.758251 -1.617059
v 0.055067 0.111473 0.016377
vn 1.292555 -3.668584 -4.821885
v 0.019263 0.095903 -0.003985
vn 2.242188 1.841297 -4.005282
v 0.045603 0.049802 -0.000500
vn 4.178733 0.614947 -4.140250
v 0.042825 0.071390 0.015869
vn 2.600262 -2.048496 -4.827807
v 0.027812 0.154601 -0.057543
vn 4.369975 -2.511632 -3.480610
v 0.044017 0.142770 -0.035371
vn 5.785531 1.545536 -1.636878
v 0.055416 0.048221 0.029302
vn 4.158393 -2.510637 -3.669414
v 0.044071 0.096333 0.007482
vn 2.367822 -3.713299 -4.149435
v 0.028580 0.131453 -0.040617
vn -5.156755 1.346443 1.087011
v -0.053959 0.147332 0.045095
vn -2.924897 2.293849 0.049277
v -0.069065 0.184498 -0.000047
vn -6.147804 0.343787 0.965160
v -0.055218 0.074675 0.058658
vn -6.159711 0.631964 0.508904
v -0.058762 0.041030 0.047636
vn -5.780163 -0.745570 -1.617724
v -0.065787 0.171082 -0.012239
vn -5.260408 -0.860229 -2.716700
v -0.057578 0.171369 -0.033613
vn -4.661988 -2.639938 -2.931861
v -0.049481 0.135553 -0.021838
vn -5.690260 -1.306079 -1.990821
v -0.053269 0.097779 0.023599
vn -4.662494 -0.725291 -4.018826
v -0.045880 0.080849 0.018977
vn -5.493657 2.247157 -1.499404
v -0.057739 0.041331 0.024563
vn -1.750185 0.376637 -5.602033
v -0.024113 0.067523 -0.000343
vn -1.311197 -2.830370 -5.109523
v -0.019203 0.093948 -0.002435
vn -2.855223 -3.834365 -3.849909
v -0.033952 0.107817 -0.011360
vn -3.132768 -2.545136 -4.321404
v -0.034312 0.148566 -0.050013
vn -0.330417 -3.735149 -4.516662
v -0.003910 0.135440 -0.053503
vn 2.884711 2.397092 0.592571
v 0.066905 0.184497 0.017497
vn 2.181132 -2.116928 -2.518964
v 0.050729 -0.046527 -0.000499
vn 4.638623 1.096292 3.961876
v 0.046864 0.139135 0.056662
vn 5.854326 -1.260016 0.810741
v 0.064876 -0.017943 0.025789
vn 2.909116 -0.833424 -2.532091
v 0.065243 -0.021957 -0.000500
vn 4.763105 -3.625680 0.787214
v 0.054151 -0.039727 0.030454
vn 5.211152 0.649099 3.421677
v 0.058064 0.149840 0.037646
vn 5.940286 -0.046744 1.140309
v 0.057551 0.111611 0.043835
vn -1.920433 -1.677098 -4.504237
v -0.019568 -0.018220 -0.000500
vn 0.165068 2.483938 -4.505763
v 0.003278 0.026535 -0.000500
vn 2.496098 0.349762 -4.465490
v 0.026701 0.001380 -0.000500
vn -2.277706 1.400488 -4.162148
v -0.023013 0.011925 -0.000500
vn 1.124914 -2.417608 -4.273177
v 0.009964 -0.023928 -0.000500
vn -2.645433 -1.512149 -2.595764
v -0.058915 -0.035822 -0.000490
vn -2.903452 0.260999 -2.265022
v -0.069382 0.004962 -0.000502
vn -1.621693 -2.548828 -2.523870
v -0.038935 -0.057602 -0.000500
vn -3.141412 -3.800504 2.335274
v -0.038966 -0.046675 0.071920
vn -5.540558 -1.943586 0.806322
v -0.062608 -0.026507 0.027921
vn -5.527427 0.111798 2.605149
v -0.052267 0.018963 0.082867
vn -5.750946 -0.889583 1.666693
v -0.058169 -0.007843 0.063760
vn -2.017040 2.519933 2.148831
v -0.044978 0.184500 0.054441
vn -0.128915 3.127118 3.079102
v -0.002168 0.184497 0.068416
vn 0.297492 3.893729 -2.913503
v -0.000811 0.184500 0.025315
vn -0.301814 2.487147 -2.986950
v -0.004940 0.184500 -0.068521
vn -2.346160 4.386137 1.226124
v 0.023813 0.184500 -0.012156
vn -1.927324 1.868065 -2.006625
v -0.049149 0.184501 -0.050800
vn 5.749170 -0.579769 1.927478
v 0.057514 0.001262 0.069230
vn 5.636670 0.716436 2.285799
v 0.051709 0.066031 0.074337
vn 1.057646 -2.827985 -2.533135
v 0.023077 -0.065372 -0.000500
vn -0.413532 -3.043337 -2.647200
v -0.008347 -0.067653 -0.000500
vn -2.804392 0.936555 5.458654
v -0.031702 0.165893 0.062387
vn 1.713640 2.726278 2.492031
v 0.037003 0.184500 0.058904
vn 3.725191 0.779820 4.866969
v 0.038772 0.163114 0.058451
vn -0.314657 2.145354 5.715634
v -0.002686 0.103406 0.091533
vn -1.466350 1.613615 5.859684
v -0.016309 0.151445 0.071384
vn -3.283436 1.723027 4.944850
v -0.035788 0.126347 0.071103
vn 2.708371 1.704218 5.327872
v 0.027469 0.133563 0.073274
vn 1.180660 1.281263 5.967883
v 0.011441 0.165520 0.069455
vn 4.127058 1.298479 4.278069
v 0.041012 0.061863 0.091777
vn 1.976422 1.674031 5.499592
v 0.023165 0.064682 0.102023
vn 3.612937 -3.594599 2.107098
v 0.041475 -0.044937 0.070825
vn 1.762559 -5.616853 0.618999
v 0.018982 -0.066038 0.029099
vn -3.500638 -4.753942 0.716832
v -0.040028 -0.055199 0.036313
vn -1.630617 -0.256555 5.645798
v -0.018159 0.010171 0.113339
vn -2.145020 1.753428 5.482125
v -0.026030 0.065439 0.100135
vn -3.891231 0.857217 4.312613
v -0.040548 0.046368 0.097713
vn 0.015991 0.995619 5.852211
v -0.001039 0.038478 0.113362
vn -3.471661 -1.662008 3.815887
v -0.040021 -0.016857 0.099019
vn 3.678508 -1.660011 3.712803
v 0.041934 -0.013976 0.098132
vn 0.779018 -3.977115 3.943098
v 0.010844 -0.041693 0.095132
vn 1.052202 -1.171822 5.635975
v 0.013691 -0.005268 0.112705
vn 3.619702 0.228013 4.354363
v 0.040140 0.016868 0.103314
vn 1.220887 -5.484017 2.200731
v 0.017180 -0.057784 0.064531
vn -0.904332 -5.649926 1.509085
v -0.011659 -0.064334 0.050087
vn -1.020505 -3.109725 4.764972
v -0.012560 -0.029833 0.103452
# 102 vertices, 0 vertices normals

f 4//4 7//7 6//6
f 7//7 4//4 3//3
f 6//6 5//5 4//4
f 13//13 2//2 16//16
f 13//13 1//1 14//14
f 10//10 9//9 16//16
f 1//1 13//13 16//16
f 10//10 16//16 2//2
f 57//57 7//7 3//3
f 57//57 3//3 59//59
f 59//59 3//3 56//56
f 56//56 3//3 4//4
f 56//56 4//4 5//5
f 56//56 5//5 60//60
f 60//60 5//5 6//6
f 60//60 6//6 58//58
f 58//58 6//6 7//7
f 58//58 7//7 57//57
f 63//63 90//90 61//61
f 61//61 65//65 62//62
f 67//67 36//36 65//65
f 33//33 83//83 78//78
f 83//83 33//33 93//93
f 8//8 35//35 33//33
f 90//90 65//65 61//61
f 9//9 10//10 11//11
f 11//11 10//10 2//2
f 11//11 2//2 12//12
f 12//12 2//2 72//72
f 72//72 2//2 13//13
f 72//72 13//13 14//14
f 72//72 14//14 15//15
f 15//15 14//14 1//1
f 15//15 1//1 70//70
f 70//70 1//1 16//16
f 70//70 16//16 9//9
f 18//18 51//51 52//52
f 24//24 21//21 55//55
f 21//21 22//22 48//48
f 31//31 29//29 21//21
f 31//31 21//21 24//24
f 20//20 24//24 55//55
f 31//31 20//20 27//27
f 30//30 27//27 20//20
f 19//19 30//30 20//20
f 30//30 19//19 18//18
f 51//51 18//18 19//19
f 31//31 27//27 25//25
f 43//43 27//27 26//26
f 27//27 43//43 25//25
f 27//27 30//30 26//26
f 17//17 71//71 23//23
f 28//28 17//17 23//23
f 47//47 17//17 28//28
f 28//28 32//32 47//47
f 28//28 23//23 22//22
f 32//32 25//25 47//47
f 47//47 25//25 44//44
f 32//32 31//31 25//25
f 29//29 31//31 32//32
f 24//24 20//20 31//31
f 29//29 28//28 22//22
f 29//29 22//22 21//21
f 28//28 29//29 32//32
f 18//18 26//26 30//30
f 8//8 68//68 34//34
f 33//33 78//78 68//68
f 8//8 33//33 68//68
f 73//73 71//71 17//17
f 34//34 73//73 37//37
f 35//35 8//8 40//40
f 65//65 36//36 62//62
f 43//43 62//62 42//42
f 8//8 34//34 37//37
f 40//40 37//37 38//38
f 38//38 37//37 73//73
f 38//38 39//39 40//40
f 8//8 37//37 40//40
f 41//41 36//36 40//40
f 38//38 46//46 39//39
f 40//40 39//39 45//45
f 40//40 45//45 41//41
f 42//42 36//36 41//41
f 42//42 62//62 36//36
f 44//44 25//25 43//43
f 35//35 40//40 36//36
f 42//42 41//41 43//43
f 46//46 73//73 17//17
f 46//46 17//17 47//47
f 46//46 47//47 45//45
f 45//45 47//47 44//44
f 38//38 73//73 46//46
f 39//39 46//46 45//45
f 41//41 45//45 44//44
f 41//41 44//44 43//43
f 54//54 48//48 79//79
f 54//54 79//79 80//80
f 19//19 20//20 75//75
f 50//50 54//54 80//80
f 75//75 20//20 55//55
f 53//53 52//52 51//51
f 53//53 49//49 52//52
f 74//74 51//51 19//19
f 21//21 48//48 55//55
f 55//55 48//48 54//54
f 86//86 75//75 50//50
f 50//50 75//75 55//55
f 50//50 55//55 54//54
f 53//53 89//89 49//49
f 49//49 89//89 76//76
f 26//26 18//18 58//58
f 43//43 26//26 57//57
f 63//63 56//56 77//77
f 77//77 56//56 60//60
f 60//60 76//76 77//77
f 57//57 26//26 58//58
f 59//59 43//43 57//57
f 59//59 62//62 43//43
f 49//49 76//76 60//60
f 58//58 52//52 49//49
f 58//58 49//49 60//60
f 58//58 18//18 52//52
f 56//56 61//61 62//62
f 56//56 62//62 59//59
f 56//56 63//63 61//61
f 66//66 35//35 36//36
f 66//66 33//33 35//35
f 67//67 64//64 95//95
f 66//66 36//36 67//67
f 95//95 93//93 66//66
f 95//95 66//66 67//67
f 64//64 67//67 65//65
f 93//93 33//33 66//66
f 9//9 68//68 69//69
f 9//9 69//69 70//70
f 9//9 34//34 68//68
f 73//73 11//11 71//71
f 11//11 73//73 34//34
f 12//12 71//71 11//11
f 72//72 23//23 12//12
f 12//12 23//23 71//71
f 15//15 79//79 48//48
f 11//11 34//34 9//9
f 72//72 22//22 23//23
f 72//72 48//48 22//22
f 15//15 48//48 72//72
f 79//79 15//15 69//69
f 69//69 15//15 70//70
f 99//99 75//75 86//86
f 19//19 75//75 74//74
f 88//88 53//53 51//51
f 88//88 51//51 74//74
f 74//74 99//99 96//96
f 74//74 75//75 99//99
f 74//74 96//96 88//88
f 89//89 77//77 76//76
f 101//101 77//77 89//89
f 101//101 90//90 63//63
f 77//77 101//101 63//63
f 83//83 93//93 92//92
f 64//64 65//65 90//90
f 78//78 69//69 68//68
f 69//69 85//85 79//79
f 84//84 50//50 80//80
f 69//69 78//78 82//82
f 69//69 82//82 85//85
f 78//78 83//83 82//82
f 85//85 82//82 81//81
f 83//83 81//81 82//82
f 80//80 79//79 85//85
f 80//80 85//85 84//84
f 85//85 81//81 84//84
f 87//87 86//86 50//50
f 89//89 53//53 88//88
f 88//88 96//96 97//97
f 87//87 50//50 84//84
f 99//99 86//86 87//87
f 92//92 81//81 83//83
f 87//87 84//84 81//81
f 92//92 93//93 91//91
f 92//92 91//91 94//94
f 93//93 95//95 91//91
f 102//102 95//95 64//64
f 100//100 88//88 97//97
f 98//98 97//97 96//96
f 98//98 96//96 99//99
f 89//89 88//88 100//100
f 89//89 100//100 101//101
f 101//101 100//100 97//97
f 102//102 97//97 98//98
f 99//99 87//87 94//94
f 64//64 90//90 101//101
f 64//64 101//101 97//97
f 64//64 97//97 102//102
f 95//95 102//102 91//91
f 92//92 94//94 81//81
f 94//94 87//87 81//81
f 98//98 99//99 94//94
f 98//98 94//94 91//91
f 98//98 91//91 102//102
# 200 faces, 0 coords texture

# End of File