####
#
# OBJ File Generated by Meshlab
#
####
# Object link_5_decimated.obj
#
# Vertices: 102
# Faces: 200
#
####
vn 2.308364 0.867278 -1.602511
v 0.025962 0.004917 -0.010000
vn 0.061778 2.117292 -4.872284
v 0.000013 0.028430 -0.000000
vn -0.586331 2.108677 -1.514152
v -0.003134 0.027791 -0.010000
vn -2.014216 -0.690161 -1.438701
v -0.026866 -0.008979 -0.009999
vn 1.109856 -2.113808 -1.494098
v 0.011502 -0.024505 -0.010000
vn 1.700800 -2.742718 2.479758
v 0.039068 -0.056350 0.033000
vn -2.211526 -0.228783 -4.691823
v -0.027012 -0.006650 -0.000000
vn -0.098355 -2.400096 -4.806585
v 0.003548 -0.026271 -0.000000
vn 2.356582 1.971629 -2.771968
v 0.053479 0.042471 -0.000000
vn 2.417752 -0.271874 -4.693376
v 0.026898 -0.001958 0.000000
vn 2.990197 -0.708479 -2.763620
v 0.066560 -0.015779 -0.000001
vn 2.983689 0.725340 -2.745273
v 0.066522 0.016751 -0.000001
vn 2.188465 -2.084965 -2.696089
v 0.052387 -0.043942 0.000001
vn -0.964088 2.854256 -2.518464
v -0.023220 0.064999 0.000021
vn 0.942366 2.873367 -2.648721
v 0.021935 0.065287 0.000001
vn 2.553363 5.649718 -0.083962
v 0.026057 0.062999 0.033017
vn -0.147168 -2.862026 -2.294886
v -0.003257 -0.070320 0.000003
vn -2.988273 0.334283 -2.597637
v -0.068580 0.009274 -0.000000
vn -5.444197 2.337185 0.727456
v -0.061624 0.028915 0.053457
vn 3.079299 0.695261 2.971710
v 0.066295 0.015131 0.033000
vn 3.521737 -0.080839 2.875348
v 0.067999 0.000001 0.033034
vn 2.833344 -1.372645 2.899868
v 0.061266 -0.029504 0.033000
vn -2.434842 -1.671756 -2.509479
v -0.058097 -0.037297 -0.000001
vn 2.342134 1.990338 -2.725048
v 0.049693 0.047333 0.033052
vn -0.058565 6.143974 -0.192630
v 0.003750 0.068225 0.033001
vn 2.839281 1.379019 2.927326
v 0.061266 0.029504 0.033000
vn 3.076515 -0.701255 2.955113
v 0.066295 -0.015131 0.033000
vn 1.884212 2.559492 2.723288
v 0.028491 0.061019 0.033024
vn 2.447003 1.952302 2.944525
v 0.053165 0.042397 0.033000
vn 1.912940 2.480530 2.828207
v 0.042151 0.053406 0.033000
vn -5.692735 -0.393099 1.044670
v -0.069122 -0.002893 0.048202
vn 2.717687 -2.206028 2.922498
v 0.053161 -0.042402 0.033025
vn -3.391570 5.032075 0.082759
v -0.038754 0.056365 0.032514
vn -2.414176 1.884070 -2.708487
v -0.054049 0.041754 0.000006
vn 2.251303 -2.892018 -2.266943
v 0.041359 -0.054352 0.033045
vn 1.160127 -0.968487 -1.843667
v -0.012718 0.070699 0.238205
vn -1.922732 -1.893481 -1.827749
v 0.014653 0.070701 0.237002
vn -2.729412 -2.222326 0.294640
v 0.025778 0.070701 0.211962
vn -0.344489 -1.930276 2.533557
v 0.003949 0.070700 0.188867
vn 2.173746 -1.510963 1.032188
v -0.026159 0.070699 0.209107
vn -1.110803 5.486544 1.677234
v -0.017366 0.093783 0.234141
vn 1.590155 2.580926 3.608484
v 0.019997 0.079749 0.262156
vn 3.505721 4.988810 -1.357909
v 0.031918 0.081606 0.134815
vn 4.103833 2.660687 -0.984632
v 0.039742 0.086204 0.174338
vn -3.332838 5.091795 -1.170811
v -0.031785 0.085544 0.148756
vn -4.573628 0.543436 0.349171
v -0.041029 0.068627 0.119659
vn -0.722310 6.083485 -1.074898
v -0.004033 0.068746 0.058494
vn -3.102556 5.223237 -1.005327
v -0.032612 0.060945 0.061656
vn -1.396654 5.907572 -0.898702
v -0.014522 0.095317 0.159093
vn 1.772184 5.581404 0.855391
v 0.027162 0.094596 0.217355
vn 1.769172 5.722466 -1.143135
v 0.018497 0.091862 0.144969
vn 0.176714 6.047154 -0.158066
v 0.000848 0.099805 0.185416
vn -2.379646 5.563461 0.198408
v -0.029976 0.093776 0.195401
vn 1.663119 5.903245 -1.124513
v 0.018949 0.067624 0.064262
vn 3.371725 5.223509 -0.700971
v 0.035112 0.059631 0.061447
vn -2.194441 5.616779 -1.501910
v -0.019753 0.087133 0.129699
vn -0.249509 5.912450 -1.568181
v -0.003660 0.090470 0.127031
vn 1.567560 -5.786657 0.066719
v 0.018967 -0.065934 0.033016
vn 2.617740 -1.509763 -2.337911
v 0.060380 -0.034255 0.033084
vn 2.992637 0.362857 -2.355403
v 0.069048 0.007279 0.033096
vn 4.010284 1.982787 0.891289
v 0.050205 0.080396 0.226311
vn -2.552533 -4.398931 -1.173415
v 0.024571 0.060701 0.220094
vn 2.221945 -4.924161 -0.288019
v -0.027973 0.060699 0.217131
vn -2.239633 -4.222533 1.851073
v 0.021252 0.060701 0.202339
vn -3.042841 -3.208649 0.616061
v 0.024571 0.060701 0.210906
vn 2.952578 -2.656288 -0.759748
v 0.046682 0.060732 0.194498
vn 0.292308 -4.477691 2.508169
v 0.001005 0.060700 0.188594
vn -2.205348 -2.796108 -2.149236
v -0.034057 0.060699 0.176017
vn -0.668279 -4.871902 -2.219110
v 0.009220 0.060700 0.241956
vn 2.275068 -1.770839 1.481650
v 0.044943 0.060703 0.244928
vn 5.155578 -1.827291 1.687999
v 0.063850 -0.021920 0.056834
vn -5.688370 -0.143902 2.377058
v -0.045583 0.046649 0.091888
vn 5.111490 2.931808 0.498752
v 0.049287 0.049831 0.078252
vn 5.068466 0.402010 2.092816
v 0.064284 0.015211 0.071292
vn 3.302850 -3.560414 2.713476
v 0.046755 -0.043486 0.064035
vn 3.271646 -2.068206 4.535168
v 0.045990 -0.015406 0.082156
vn 5.031861 -0.121768 3.335472
v 0.043639 0.041587 0.097323
vn 2.670455 -2.659622 4.886139
v 0.027277 0.033757 0.108953
vn 3.012956 -4.646200 2.683334
v 0.028768 0.060141 0.128386
vn -0.314867 -2.728207 5.548333
v -0.002937 0.020112 0.108405
vn -2.948746 -4.404402 3.009713
v -0.025730 0.055956 0.126204
vn -4.120433 -1.366372 3.497818
v -0.055703 -0.009085 0.078434
vn 1.179358 -3.996689 4.302526
v 0.017407 -0.050404 0.072582
vn -4.961315 -2.762162 1.292629
v -0.059407 -0.032865 0.049878
vn -4.933136 3.339230 -0.281472
v -0.048691 0.049646 0.073486
vn -2.367193 -4.844596 1.176255
v -0.032228 -0.061429 0.046316
vn -1.403751 -2.700150 5.300203
v -0.020057 -0.025021 0.088099
vn -3.545621 -3.093581 3.284291
v -0.048720 -0.035166 0.068496
vn 0.379890 -4.596917 4.045562
v 0.003827 0.048671 0.127627
vn 0.830711 -5.190934 1.710950
v 0.014096 -0.065753 0.053395
vn -1.097931 -4.170527 4.036109
v -0.014996 -0.050659 0.072743
vn 0.821788 -2.829674 5.320527
v 0.011883 -0.027647 0.088768
vn -3.698294 -1.830129 4.435995
v -0.034074 0.036345 0.105978
vn 0.511548 -4.227746 -2.825037
v 0.014096 0.060717 0.163742
vn 4.027122 -4.257509 -0.769052
v 0.031277 0.070112 0.161321
vn -1.617337 -1.789077 2.179502
v -0.029881 0.060699 0.259400
vn -3.606874 1.942957 1.751058
v -0.045531 0.080205 0.237027
vn 0.745886 -2.385428 2.868222
v 0.015138 0.060701 0.265056
vn -0.979208 2.109022 4.206193
v -0.011825 0.077279 0.264938
vn -2.852651 -2.109035 -0.166312
v -0.052068 0.060696 0.207334
vn -4.209364 2.164648 -0.907896
v -0.046431 0.083866 0.190003
vn -1.143554 -5.697767 -0.018640
v -0.015363 0.066196 0.159334
# 102 vertices, 0 vertices normals

f 4//4 3//3 1//1
f 4//4 1//1 5//5
f 33//33 14//14 34//34
f 10//10 1//1 2//2
f 2//2 1//1 3//3
f 2//2 3//3 7//7
f 7//7 3//3 4//4
f 7//7 4//4 8//8
f 8//8 4//4 5//5
f 8//8 5//5 10//10
f 10//10 5//5 1//1
f 7//7 34//34 2//2
f 7//7 18//18 34//34
f 7//7 23//23 18//18
f 10//10 13//13 8//8
f 9//9 12//12 10//10
f 2//2 14//14 15//15
f 8//8 17//17 7//7
f 7//7 17//17 23//23
f 13//13 17//17 8//8
f 2//2 9//9 10//10
f 34//34 14//14 2//2
f 10//10 11//11 13//13
f 2//2 15//15 9//9
f 10//10 12//12 11//11
f 6//6 13//13 32//32
f 58//58 17//17 6//6
f 13//13 6//6 17//17
f 25//25 15//15 14//14
f 15//15 25//25 16//16
f 30//30 15//15 16//16
f 17//17 86//86 23//23
f 23//23 31//31 18//18
f 19//19 18//18 31//31
f 19//19 34//34 18//18
f 15//15 30//30 9//9
f 9//9 30//30 29//29
f 9//9 29//29 26//26
f 9//9 26//26 12//12
f 20//20 12//12 26//26
f 12//12 20//20 21//21
f 27//27 11//11 21//21
f 21//21 11//11 12//12
f 11//11 27//27 22//22
f 32//32 13//13 22//22
f 22//22 13//13 11//11
f 31//31 23//23 84//84
f 37//37 40//40 38//38
f 36//36 40//40 37//37
f 39//39 38//38 40//40
f 28//28 55//55 24//24
f 54//54 55//55 16//16
f 16//16 55//55 28//28
f 25//25 47//47 54//54
f 25//25 54//54 16//16
f 33//33 48//48 25//25
f 25//25 48//48 47//47
f 26//26 24//24 20//20
f 20//20 24//24 21//21
f 27//27 21//21 22//22
f 24//24 26//26 28//28
f 28//28 26//26 29//29
f 28//28 29//29 30//30
f 28//28 30//30 16//16
f 17//17 58//58 86//86
f 86//86 84//84 23//23
f 22//22 21//21 32//32
f 6//6 32//32 35//35
f 6//6 35//35 58//58
f 25//25 14//14 33//33
f 33//33 34//34 19//19
f 48//48 33//33 19//19
f 59//59 21//21 60//60
f 60//60 21//21 24//24
f 59//59 35//35 32//32
f 59//59 32//32 21//21
f 50//50 61//61 44//44
f 63//63 40//40 36//36
f 63//63 36//36 69//69
f 69//69 36//36 37//37
f 69//69 37//37 38//38
f 69//69 38//38 62//62
f 62//62 38//38 65//65
f 65//65 38//38 64//64
f 64//64 38//38 39//39
f 64//64 39//39 67//67
f 67//67 39//39 40//40
f 67//67 40//40 63//63
f 101//101 97//97 41//41
f 53//53 101//101 41//41
f 42//42 61//61 50//50
f 42//42 50//50 41//41
f 99//99 42//42 41//41
f 73//73 24//24 55//55
f 101//101 53//53 45//45
f 48//48 46//46 45//45
f 48//48 85//85 46//46
f 56//56 47//47 48//48
f 49//49 52//52 57//57
f 57//57 56//56 49//49
f 52//52 49//49 53//53
f 53//53 49//49 45//45
f 45//45 49//49 56//56
f 50//50 44//44 51//51
f 51//51 44//44 43//43
f 52//52 50//50 51//51
f 50//50 52//52 41//41
f 51//51 57//57 52//52
f 41//41 52//52 53//53
f 56//56 57//57 47//47
f 43//43 73//73 55//55
f 43//43 55//55 51//51
f 51//51 55//55 54//54
f 47//47 57//57 54//54
f 48//48 45//45 56//56
f 54//54 57//57 51//51
f 85//85 48//48 19//19
f 46//46 101//101 45//45
f 46//46 85//85 72//72
f 81//81 101//101 46//46
f 73//73 43//43 44//44
f 44//44 79//79 73//73
f 73//73 74//74 60//60
f 86//86 58//58 90//90
f 24//24 73//73 60//60
f 44//44 66//66 95//95
f 94//94 95//95 66//66
f 44//44 61//61 66//66
f 79//79 44//44 95//95
f 62//62 70//70 69//69
f 63//63 100//100 68//68
f 69//69 98//98 96//96
f 65//65 66//66 62//62
f 62//62 66//66 70//70
f 64//64 66//66 65//65
f 66//66 64//64 67//67
f 69//69 70//70 98//98
f 67//67 94//94 66//66
f 68//68 94//94 67//67
f 63//63 68//68 67//67
f 96//96 100//100 63//63
f 69//69 96//96 63//63
f 66//66 61//61 70//70
f 101//101 100//100 97//97
f 99//99 41//41 97//97
f 59//59 60//60 71//71
f 90//90 83//83 91//91
f 83//83 90//90 75//75
f 71//71 60//60 74//74
f 76//76 78//78 92//92
f 80//80 92//92 78//78
f 76//76 77//77 78//78
f 75//75 59//59 71//71
f 77//77 74//74 73//73
f 35//35 59//59 75//75
f 58//58 35//35 90//90
f 90//90 35//35 75//75
f 76//76 75//75 71//71
f 76//76 71//71 74//74
f 76//76 74//74 77//77
f 76//76 92//92 75//75
f 75//75 92//92 83//83
f 79//79 95//95 89//89
f 72//72 93//93 81//81
f 89//89 80//80 78//78
f 79//79 78//78 77//77
f 79//79 77//77 73//73
f 93//93 80//80 81//81
f 81//81 80//80 89//89
f 46//46 72//72 81//81
f 88//88 82//82 31//31
f 88//88 31//31 84//84
f 19//19 72//72 85//85
f 88//88 86//86 91//91
f 91//91 83//83 92//92
f 93//93 72//72 82//82
f 82//82 88//88 87//87
f 87//87 91//91 92//92
f 84//84 86//86 88//88
f 91//91 87//87 88//88
f 78//78 79//79 89//89
f 80//80 93//93 87//87
f 86//86 90//90 91//91
f 87//87 93//93 82//82
f 92//92 80//80 87//87
f 82//82 72//72 31//31
f 31//31 72//72 19//19
f 95//95 94//94 102//102
f 102//102 89//89 95//95
f 96//96 98//98 99//99
f 97//97 100//100 96//96
f 96//96 99//99 97//97
f 99//99 98//98 42//42
f 42//42 98//98 70//70
f 61//61 42//42 70//70
f 101//101 102//102 68//68
f 101//101 68//68 100//100
f 81//81 102//102 101//101
f 81//81 89//89 102//102
f 102//102 94//94 68//68
# 200 faces, 0 coords texture

# End of File